<svg xmlns="http://www.w3.org/2000/svg" xmlns:xlink="http://www.w3.org/1999/xlink" viewBox="0 0 75.83 55.99"><defs><style>.cls-1{isolation:isolate;}.cls-2{opacity:0.61;mix-blend-mode:multiply;fill:url(#radial-gradient);}.cls-3{fill:#23a4e5;}.cls-3,.cls-4{fill-rule:evenodd;}.cls-4{fill:#818481;}</style><radialGradient id="radial-gradient" cx="72.83" cy="-100.43" fx="36.44974441727181" r="72.67" gradientTransform="matrix(0.51, 0.01, 0, 0.09, 8.58, 64.52)" gradientUnits="userSpaceOnUse"><stop offset="0"/><stop offset="0" stop-color="#030303"/><stop offset="0.12" stop-color="#3d3d3d"/><stop offset="0.24" stop-color="#717171"/><stop offset="0.36" stop-color="#9c9c9c"/><stop offset="0.48" stop-color="silver"/><stop offset="0.6" stop-color="#dcdcdc"/><stop offset="0.72" stop-color="#efefef"/><stop offset="0.85" stop-color="#fbfbfb"/><stop offset="0.97" stop-color="#fff"/></radialGradient></defs><title>socially_logo</title><g class="cls-1"><g id="Layer_1" data-name="Layer 1"><path class="cls-2" d="M83.1,57.34c-.07,3.47-16.76,5.95-37.27,5.53s-37.08-3.59-37-7.06,16.75-6,37.27-5.53S83.18,53.85,83.1,57.34Z" transform="translate(-7.28 -6.92)"/><path class="cls-3" d="M46.48,53,39,51c-3.68-1-4.09-.23-1.93-3l3.87-4.87c1.23-1.57,1-1.64.93.33l-.11,1.57c20.76-5,50.67-27.08,13.76-17.23-.11,0-.22,0-.29,0l-6.81,2a1.66,1.66,0,0,1-2-1.34h0a1.79,1.79,0,0,1,1.34-2l3.94-1.26c.19.78,0,2,1.12,1.48a1.53,1.53,0,0,0,.89-.93,3,3,0,0,0-.52-2.67,7,7,0,0,0-.82-.78l6.73,2.08a1.35,1.35,0,0,0,1.75-.89h0a1.47,1.47,0,0,0-1.15-1.57l-6.1-1.93v0l.7.19a.73.73,0,0,1,.27,0l7.4,1.86a1.2,1.2,0,0,0,1.41-.9h0a1.18,1.18,0,0,0-.89-1.41L55.19,18c-.08,0-.19-.07-.3-.11l6.62,1.15A1.22,1.22,0,0,0,63,18.2h0a1.19,1.19,0,0,0-.89-1.45l-6.63-1.19a1.89,1.89,0,0,0-.37-.15h0l3.65.44A1.15,1.15,0,0,0,60.06,15h0a1.07,1.07,0,0,0-.82-1.33L54.63,13a1.49,1.49,0,0,0-.19,0c-2.41-.56-7.33-1.3-5.4-5.47.45-.89.86-.67,1.31-.07s1,1.75,1.64,1.89c1.63.26,3.16.52,4.57.82,34.56,7.14,21.1,26.93-11.05,40.32L47,52.19c1.34,1.45,1.38,1.26-.52.78Zm1.67-31.09L40,23.37A1.83,1.83,0,0,1,37.88,22h0A1.79,1.79,0,0,1,39.3,19.8a12.44,12.44,0,0,1,8.85,2.08Zm.38.26a13.29,13.29,0,0,1,3,2.82.2.2,0,0,1,.08.15l-9,2.31A1.82,1.82,0,0,1,40.38,26h0a1.85,1.85,0,0,1,1.45-2.12Z" transform="translate(-7.28 -6.92)"/><path class="cls-4" d="M37.66,7.67l7.52,2c3.68.93,4.09.22,1.93,2.94l-3.87,4.87c-1.23,1.56-1,1.64-.93-.33l.11-1.53c-20.76,5-50.67,27-13.76,17.22a1.91,1.91,0,0,0,.3-.07l6.8-2a1.69,1.69,0,0,1,2,1.34h0a1.78,1.78,0,0,1-1.34,2l-3.94,1.26c-.19-.78,0-2.08-1.12-1.52a1.73,1.73,0,0,0-.89,1A2.9,2.9,0,0,0,31,37.42a7,7,0,0,0,.82.78l-6.73-2.08a1.31,1.31,0,0,0-1.71.89h0a1.4,1.4,0,0,0,1.11,1.57l6.1,2h0l-.7-.15a.47.47,0,0,0-.23,0l-7.44-1.89a1.18,1.18,0,0,0-1.41.89h0a1.25,1.25,0,0,0,.89,1.45L29,42.63a1,1,0,0,0,.29.15l-6.62-1.19a1.22,1.22,0,0,0-1.41.89h0a1.15,1.15,0,0,0,.89,1.42l6.59,1.19a1.4,1.4,0,0,0,.37.14h0l-3.65-.44a1.24,1.24,0,0,0-1.34.85h0A1.05,1.05,0,0,0,24.9,47l4.61.66s.12,0,.19,0c2.42.56,7.33,1.34,5.39,5.47-.44.89-.85.67-1.3.11s-1-1.79-1.63-1.93c-1.6-.26-3.13-.52-4.58-.82C-7,43.34,6.52,23.55,38.63,10.16L37.14,8.45c-1.34-1.45-1.38-1.26.52-.78ZM36,38.76l8.14-1.49a1.86,1.86,0,0,1,2.16,1.42h0a1.83,1.83,0,0,1-1.45,2.16A12.49,12.49,0,0,1,36,38.76Zm-.38-.26a12.64,12.64,0,0,1-3-2.82s0-.08-.08-.15l9-2.31a1.8,1.8,0,0,1,2.16,1.41h0a1.89,1.89,0,0,1-1.41,2.16Z" transform="translate(-7.28 -6.92)"/></g></g></svg>